<svg width="93" height="93" viewBox="0 0 93 93" fill="none" xmlns="http://www.w3.org/2000/svg">
<g clip-path="url(#clip0_105_360)">
<path d="M90.0807 83.2091L77.4999 70.7058V22.6041L71.5582 11.6766C71.1199 10.8435 70.4623 10.1459 69.6565 9.6593C68.8506 9.17268 67.9271 8.91548 66.9857 8.91548C66.0443 8.91548 65.1208 9.17268 64.315 9.6593C63.5091 10.1459 62.8515 10.8435 62.4132 11.6766L56.8332 22.6299V50.1424L9.58405 3.12576C9.22272 2.76144 8.76107 2.51297 8.25797 2.41204C7.75488 2.31111 7.23312 2.36229 6.75922 2.55905C6.28532 2.75582 5.88076 3.08925 5.59711 3.51685C5.31345 3.94444 5.16356 4.44682 5.16655 4.95993V25.8333H10.7724V29.9666H5.16655V46.4999H10.7724V50.6333H5.16655V67.8124H10.7724V71.9458H5.16655V85.0433C5.16655 85.7284 5.43872 86.3855 5.92319 86.8699C6.40766 87.3544 7.06474 87.6266 7.74988 87.6266H88.2466C88.7597 87.6296 89.262 87.4797 89.6896 87.196C90.1172 86.9124 90.4507 86.5078 90.6474 86.0339C90.8442 85.56 90.8954 85.0383 90.7944 84.5352C90.6935 84.0321 90.445 83.5704 90.0807 83.2091ZM25.8332 67.1666V43.7616L49.264 67.1666H25.8332ZM72.3332 72.6174H61.9999V66.3399H72.3332V72.6174ZM72.3332 62.2841H61.9999V23.8958L67.0116 14.1566L72.3332 23.9216V62.2841Z" fill="#0D6EFD"/>
</g>
<defs>
<clipPath id="clip0_105_360">
<rect width="93" height="93" fill="white"/>
</clipPath>
</defs>
</svg>
