<svg width="114" height="81" viewBox="0 0 114 81" fill="none" xmlns="http://www.w3.org/2000/svg">
<path d="M14.658 0.271529C13.2993 0.630696 11.6956 1.7082 10.8938 2.76457C9.49058 4.58154 9.53512 3.88434 9.60195 22.9202L9.66877 40.2237L10.2701 41.3012C10.9161 42.4843 12.2748 43.752 13.4552 44.2801L14.2125 44.6182L14.2794 50.9353L14.3462 57.2736L15.0812 57.8863C16.1058 58.7525 17.2863 58.7314 18.2218 57.844L18.9122 57.1891V50.9142V44.6182L19.7809 44.259C21.6296 43.4562 23.1665 41.4913 23.5674 39.3997C23.9015 37.7306 23.9015 7.24361 23.5896 5.65905C22.9437 2.46879 20.3155 0.229274 17.019 0.0602535C16.284 0.0179985 15.2148 0.123636 14.658 0.271529Z" fill="#0D6EFD"/>
<path d="M82.258 0.187251C81.9908 0.271761 81.5676 0.63093 81.3003 0.947843C80.8548 1.47603 80.8325 1.75069 80.8325 5.27898V9.03968L79.8971 9.14532C79.3625 9.2087 77.2911 9.41998 75.2642 9.589C73.2373 9.77914 65.9762 10.5397 59.116 11.3003C39.2258 13.4976 35.9294 13.73 33.0561 13.2018C30.4724 12.7159 30.116 12.7581 29.2473 13.5821L28.4678 14.3216L28.5346 23.0895L28.6014 31.8785L29.2028 32.449C29.9823 33.1884 30.8733 33.2096 33.9916 32.5546C39.8049 31.3503 47.2888 31.4137 54.1267 32.7236C62.3679 34.3082 68.8049 37.5618 70.5868 41.0901C71.3664 42.6324 71.4109 44.5762 70.7427 47.1115C69.6067 51.2525 67.7358 54.5061 65.0184 57.0414L63.5038 58.4569L61.0983 58.5414C58.3364 58.626 57.6237 58.9217 57.2227 60.1049C56.8664 61.0979 57.2673 62.1543 58.1805 62.7036L58.8932 63.1472H32.3433C6.66209 63.1472 5.74888 63.1684 4.65748 63.5487C3.12062 64.098 2.11831 64.8797 1.2051 66.1685C0.158252 67.7108 -0.0867555 69.0207 0.0246115 72.7603C0.0914317 75.6547 0.135979 76.035 0.67054 77.1125C1.40556 78.6126 2.60833 79.7323 4.18974 80.4507L5.43705 81H57H108.563L109.81 80.4507C111.392 79.7323 112.594 78.6126 113.329 77.1125C113.864 76.035 113.909 75.6547 113.975 72.7603C114.087 69.0207 113.842 67.7108 112.795 66.1685C111.191 63.8445 109.476 63.1472 105.378 63.1472H102.549L103.262 62.7247C104.131 62.2388 104.442 61.7106 104.442 60.7598C104.442 59.1964 103.151 58.4992 100.277 58.4992H98.6958L98.1167 57.0625C96.7358 53.6399 95.3325 47.4495 95.1766 43.9212C95.0653 41.4915 95.0653 41.4915 95.9562 39.1675C98.7626 31.794 99.2304 30.3151 99.609 27.5474C99.6536 27.1882 99.7204 28.5615 99.7427 30.5686C99.7649 34.4983 99.9209 35.1533 100.923 35.6181C102.015 36.1463 102.995 36.0195 103.796 35.2801L104.442 34.6674V22.519V10.3707L103.752 9.71576C102.816 8.82841 101.636 8.80728 100.611 9.6735L99.8763 10.2862L99.7649 16.709C99.6981 20.2161 99.609 22.8148 99.5868 22.4557C99.4977 21.2091 98.5399 18.4626 97.6712 16.9836C97.1144 16.0329 96.1121 14.8497 94.8648 13.6877C93.2834 12.1877 92.5706 11.7017 90.8333 10.8778C89.6974 10.3285 88.0046 9.73689 87.1359 9.54674L85.51 9.18757V5.51138C85.51 1.47603 85.354 0.884459 84.1736 0.292889C83.4608 -0.066279 82.9708 -0.0874065 82.258 0.187251Z" fill="#0D6EFD"/>
<ellipse cx="84.5077" cy="24.5896" rx="11.4708" ry="10.2468" fill="#B9D5FF"/>
<rect x="14.0125" y="44.5549" width="4.90015" height="12.6765" fill="#B9D5FF"/>
<path d="M17.1573 58.6477C16.74 58.9391 16.1851 58.9391 15.7678 58.6477C14.7943 57.968 15.2753 56.4391 16.4626 56.4391C17.6498 56.4391 18.1308 57.968 17.1573 58.6477Z" fill="#B9D5FF"/>
</svg>
