<svg width="80" height="84" viewBox="0 0 80 84" fill="none" xmlns="http://www.w3.org/2000/svg">
<path d="M49.6541 41.9186L75.21 12.5475C76.2535 11.1056 76.689 9.3115 76.4225 7.55165C76.1561 5.7918 75.209 4.20702 73.7854 3.13864C72.3618 2.07027 70.5755 1.60379 68.8113 1.83969C67.0471 2.07559 65.4462 2.99499 64.3533 4.39985L14.5994 81.995L42.49 50.1275" stroke="#0D6EFD" stroke-width="2" stroke-linecap="round" stroke-linejoin="round"/>
<path d="M67.9116 14.7221C66.6473 15.6001 65.4068 15.8707 64.6529 15.3057C63.4566 14.409 63.945 11.7356 65.7454 9.33793C67.5458 6.94026 69.9741 5.72525 71.1704 6.62374C71.4214 6.81845 71.6062 7.08587 71.6996 7.3895" stroke="#0D6EFD" stroke-width="2" stroke-linecap="round" stroke-linejoin="round"/>
<path d="M41.845 12.8573C41.845 12.8573 52.1044 4.68409 62.5766 7.16855M66.3748 8.57584C67.2958 9.05191 68.1738 9.60704 68.9988 10.235C72.4686 12.7416 75.1476 16.1898 76.7188 20.1715C78.29 24.1532 78.6876 28.5017 77.8646 32.7023C77.8646 32.7023 75.1197 47.9052 59.3213 48.3732C30.6308 41.6769 36.5034 61.3637 15.3157 80.8157L36.5868 48.3732L56.1561 17.8533L66.3748 8.57584Z" stroke="#0D6EFD" stroke-width="2" stroke-linecap="round" stroke-linejoin="round"/>
<path d="M74.8784 1.68364C73.9765 1.01307 72.9509 0.527454 71.8607 0.25475C70.7704 -0.0179537 69.637 -0.0723648 68.5257 0.0946474C67.4143 0.26166 66.3469 0.646798 65.385 1.2279C64.4231 1.809 63.5855 2.57459 62.9206 3.48062L13.1667 81.0741C12.9339 81.4357 12.8466 81.8721 12.9224 82.2954C12.9983 82.7188 13.2316 83.0977 13.5755 83.356C13.9194 83.6143 14.3483 83.7328 14.776 83.6877C15.2037 83.6425 15.5985 83.4371 15.8809 83.1127L76.4916 13.6669C76.5198 13.6353 76.5465 13.6024 76.5715 13.5682C77.92 11.7666 78.4991 9.5038 78.1817 7.27593C77.8643 5.04805 76.6763 3.03696 74.8784 1.68364V1.68364ZM68.7183 11.5704C68.0188 12.6761 66.9534 13.5011 65.708 13.9017C65.7453 12.5945 66.2404 11.3418 67.1068 10.3622C67.8058 9.25694 68.8705 8.43193 70.1153 8.03093C70.0775 9.33775 69.5832 10.5901 68.7183 11.5704V11.5704Z" fill="#B7D2FB"/>
<path d="M49.6543 41.9184L75.2103 12.5473C76.2538 11.1054 76.6892 9.31126 76.4228 7.55141C76.1563 5.79156 75.2093 4.20677 73.7857 3.1384C72.3621 2.07002 70.5758 1.60355 68.8116 1.83945C67.0474 2.07535 65.4464 2.99474 64.3535 4.39961L14.5996 81.9948L42.4902 50.1273" stroke="#0D6EFD" stroke-width="2" stroke-linecap="round" stroke-linejoin="round"/>
<path d="M67.9119 14.7221C66.6475 15.6001 65.407 15.8707 64.6532 15.3057C63.4569 14.409 63.9452 11.7356 65.7456 9.33793C67.546 6.94026 69.9743 5.72525 71.1706 6.62374C71.4216 6.81845 71.6064 7.08587 71.6998 7.3895" stroke="#0D6EFD" stroke-width="2" stroke-linecap="round" stroke-linejoin="round"/>
<path d="M61.7719 5.27104C51.0751 3.44173 41.2036 11.1827 40.773 11.5247C40.4199 11.8059 40.1929 12.2159 40.142 12.6644C40.0911 13.1129 40.2205 13.5633 40.5016 13.9165C40.7828 14.2696 41.1927 14.4966 41.6413 14.5475C42.0898 14.5984 42.5402 14.469 42.8934 14.1879C42.9801 14.1198 51.07 7.80656 59.7332 8.44979L61.7719 5.27104ZM66.8071 10.7828C67.2031 11.0335 67.5905 11.303 67.9694 11.5911C71.2001 13.8968 73.6951 17.0876 75.1537 20.7789C76.6123 24.4702 76.9723 28.5046 76.1902 32.3959C76.0864 32.9609 73.459 46.251 59.2704 46.6714C54.6671 46.5027 50.1032 45.7566 45.6858 44.4507C32.6169 41.294 16.359 37.3716 0.550294 51.8819C0.2179 52.1875 0.0204959 52.6125 0.00150776 53.0636C-0.0174804 53.5147 0.143504 53.9549 0.449044 54.2873C0.754584 54.6196 1.17965 54.817 1.63074 54.836C2.08183 54.855 2.52198 54.694 2.85438 54.3885C17.3238 41.1051 31.9651 44.6378 44.886 47.757C49.6009 49.1183 54.4648 49.8967 59.3691 50.0747C76.3519 49.5693 79.5085 33.1702 79.5119 33.1208C80.4402 28.5963 80.0387 23.8998 78.3558 19.5986C76.6729 15.2973 73.7807 11.5753 70.0284 8.88202C69.7857 8.69711 69.5395 8.51843 69.2899 8.34599C68.3117 8.89233 67.4893 9.67959 66.9007 10.6331L66.8071 10.7828Z" fill="#0D6EFD"/>
</svg>
