<svg width="95" height="95" viewBox="0 0 95 95" fill="none" xmlns="http://www.w3.org/2000/svg">
<path d="M85.5 0H9.5C4.275 0 0 4.275 0 9.5V85.5C0 88.0196 1.00089 90.4359 2.78249 92.2175C4.56408 93.9991 6.98044 95 9.5 95H85.5C90.7725 95 95 90.7725 95 85.5V9.5C95 6.98044 93.9991 4.56408 92.2175 2.78249C90.4359 1.00089 88.0196 0 85.5 0ZM9.5 19L19 9.5H42.275L9.5 42.275V19ZM9.5 55.575L55.575 9.5H78.85L9.5 78.85V55.575V55.575ZM85.5 76L76 85.5H52.725L85.5 52.725V76ZM85.5 39.425L39.425 85.5H16.15L85.5 16.15V39.425Z" fill="#0D6EFD"/>
</svg>
